<?xml-stylesheet href="main.css"?>
<!DOCTYPE svg PUBLIC "-//W3C//DTD SVG 1.1//EN" "http://www.w3.org/Graphics/SVG/1.1/DTD/svg11.dtd">
<svg version="1.1" class="band_logo" xmlns="http://www.w3.org/2000/svg" xmlns:xlink="http://www.w3.org/1999/xlink" x="0px" y="0px"
	 width="1623.162px" height="408.041px" viewBox="0 0 1623.162 408.041" enable-background="new 0 0 1623.162 408.041"
	 xml:space="preserve" style="fill: #F2DEE1">
<g>
	<path class="h" fill-rule="evenodd" clip-rule="evenodd" d="M1078.696,88.009c-0.53-4.001,1.091-5.524,4.808-6.176
		c13.105-2.297,26.127-5.071,39.229-7.389c3.203-0.566,6.592-0.084,10.567-0.084c-11.407,42.917-22.761,85.64-34.116,128.362
		c0.345,0.151,0.689,0.303,1.035,0.454c2.858-4.414,5.689-8.848,8.582-13.239c9.17-13.923,18.183-28.073,31.447-38.536
		c4.849-3.825,10.632-7.085,16.516-8.854c12.995-3.905,23.668,4.13,23.489,17.755c-0.101,7.696-1.537,15.562-3.603,23.008
		c-6.128,22.105-12.915,44.026-19.312,66.056c-0.92,3.172-3.257,7.423,0.632,9.497c3.949,2.108,6.181-2.325,8.235-4.843
		c3.334-4.087,6.085-8.648,9.291-13.312c1.736,1.018,3.259,1.91,5.073,2.974c-7.181,11.989-13.889,24.154-26.499,30.821
		c-5.072,2.681-11.245,4.274-16.984,4.48c-9.63,0.345-16.293-7.119-15.549-16.795c0.469-6.077,1.895-12.157,3.551-18.05
		c6.075-21.603,12.487-43.11,18.613-64.699c0.993-3.497,3.28-8.438-1.21-10.154c-2.581-0.986-7.343,1.203-9.994,3.354
		c-13.165,10.676-21.491,25.154-30.322,39.321c-11.612,18.629-15.739,39.75-21.395,60.373c-1.162,4.239-2.906,5.465-7.095,5.32
		c-8.947-0.306-17.913-0.094-27.531-0.094c3.437-12.875,6.691-25.033,9.926-37.199c11.958-44.988,23.998-89.954,35.807-134.982
		C1095.352,92.171,1093.704,90.292,1078.696,88.009z"/>
	<path class="p_2" fill-rule="evenodd" clip-rule="evenodd" d="M850.809,155.142c-0.296-4.131,1.264-5.645,4.999-6.25
		c13.79-2.231,27.499-4.942,41.271-7.279c2.726-0.462,5.596-0.066,9.091-0.066c-1.899,7.612-3.717,14.89-5.702,22.848
		c5.79-4.902,10.565-9.968,16.286-13.511c6.101-3.778,12.851-7.033,19.754-8.869c9.993-2.657,19.459,1.522,24.055,10.748
		c3.261,6.545,6.155,14.039,6.384,21.2c1.254,39.298-13.411,71.733-44.376,96.297c-8.493,6.736-18.425,10.469-29.428,11.172
		c-7.558,0.483-14.593-0.724-21.424-5.82c-1.048,3.759-2.018,6.828-2.752,9.951c-2.62,11.157-5.688,22.243-7.582,33.525
		c-1.887,11.23,0.292,13.771,11.111,16.724c1.111,0.303,2.227,0.587,3.933,1.036c-0.347,1.727-0.682,3.396-1.02,5.079
		c-23.783,0-47.224,0-70.729,0c-0.186-2.896-0.105-5.139,3.483-5.575c8.06-0.979,13.588-5.745,16.217-13.096
		c3.63-10.149,6.812-20.492,9.569-30.914c10.126-38.249,20.017-76.56,29.931-114.863c0.999-3.856,1.729-7.799,2.294-11.745
		c0.976-6.803-1.214-9.483-8.142-10.217C855.733,155.274,853.41,155.27,850.809,155.142z M932.661,189.025
		c-0.737-5.746-0.877-11.65-2.357-17.196c-1.996-7.472-8.104-11.013-14.965-8.536c-9.305,3.358-16.829,9.975-19.521,19.356
		c-7.245,25.24-13.397,50.792-19.93,76.236c-0.359,1.399-0.783,3.186-0.238,4.352c5.432,11.612,14.829,14.809,24.402,7.092
		c2.819-2.273,5.32-5.077,7.503-7.986C923.819,240.663,930.208,215.647,932.661,189.025z"/>
	<path class="p_1" fill-rule="evenodd" clip-rule="evenodd" d="M125.96,277.203c-3.068,12.982-6.719,26.647-9.443,40.494
		c-2.339,11.889,0.195,15.172,11.765,18.317c0.938,0.255,1.887,0.465,3.006,0.738c-0.102,2.639,0.673,5.444-3.333,5.403
		c-0.833-0.009-1.667,0.004-2.5,0.004c-21.827,0-43.653,0-65.736,0c-0.127-3.354,0.28-5.412,4.214-5.928
		c7.375-0.965,12.726-5.439,15.219-12.235c3.655-9.966,6.875-20.133,9.587-30.397c10.496-39.719,20.741-79.504,30.995-119.287
		c0.868-3.363,1.382-6.872,1.582-10.34c0.322-5.577-1.368-7.467-6.979-8.263c-2.767-0.394-5.581-0.457-8.331-0.667
		c-0.237-3.744,0.899-5.514,4.814-6.135c13.803-2.191,27.516-4.942,41.298-7.273c2.854-0.483,5.858-0.07,9.223-0.07
		c-1.895,7.52-3.671,14.565-5.447,21.611c0.257,0.195,0.515,0.391,0.771,0.586c2.834-2.564,5.63-5.173,8.511-7.686
		c7.463-6.507,15.301-12.299,25.421-14.103c11.942-2.13,20.85,2.122,26.583,12.847c5.514,10.312,5.813,21.472,4.888,32.654
		c-2.684,32.427-16.357,59.406-41.246,80.437c-10.486,8.86-22.686,14.212-36.642,13.465
		C138.387,281.065,132.698,278.812,125.96,277.203z M187.954,186.017c-0.906-5.047-1.266-10.273-2.848-15.097
		c-2.283-6.964-8.52-10.186-15.115-7.517c-8.918,3.609-16.374,9.914-19.003,19.249c-7.169,25.447-13.45,51.144-20.04,76.753
		c-0.316,1.228-0.732,2.802-0.25,3.807c6.058,12.652,16.339,14.879,24.716,6.723c6.214-6.049,11.476-13.45,15.75-21.045
		C182.073,229.506,186.32,208.186,187.954,186.017z"/>
	<path class="a" fill-rule="evenodd" clip-rule="evenodd" d="M1503.23,162.688c1.559-5.521,2.661-10.021,4.165-14.382
		c0.421-1.215,1.962-2.794,3.103-2.894c9.266-0.809,18.56-1.306,28.596-1.946c-0.443,2.049-0.739,3.745-1.18,5.403
		c-8.938,33.751-17.933,67.487-26.781,101.26c-0.875,3.34-3.098,7.81,1.127,9.922c4.197,2.099,7.058-2.021,9.451-4.775
		c3.24-3.729,5.863-7.994,8.92-12.264c1.434,0.749,2.694,1.407,3.901,2.037c-4.795,17.768-23.779,35.106-39.544,36.323
		c-13.529,1.046-20.538-6.491-18.021-19.842c1.323-7.015,3.373-13.892,5.09-20.83c0.232-0.938,0.438-1.884-0.203-3.287
		c-0.755,1.28-1.403,2.64-2.279,3.832c-7.661,10.434-15.038,21.104-23.188,31.144c-4.227,5.207-10.287,8.361-17.319,8.985
		c-10.191,0.905-16.944-2.951-21.132-12.308c-5.749-12.846-5.92-26.272-3.135-39.681c5.05-24.324,14.667-46.645,31.289-65.455
		c7.995-9.048,16.968-17.022,28.771-20.887c14.23-4.658,22.8,0.004,26.787,14.376
		C1502.032,158.811,1502.475,160.183,1503.23,162.688z M1497.242,172.054c-0.83-4.883-1.167-9.917-2.604-14.614
		c-2.203-7.205-8.683-9.104-14.446-4.229c-3.241,2.74-6.453,6.091-8.255,9.849c-5.876,12.257-11.564,24.649-16.445,37.328
		c-5.161,13.408-8.044,27.461-7.599,41.947c0.143,4.62,0.601,9.981,5.816,11.775c5.523,1.9,9.809-1.699,12.783-5.771
		c5.18-7.094,10.349-14.323,14.41-22.077C1489.755,209.358,1496.231,191.605,1497.242,172.054z"/>
	<path class="y" fill-rule="evenodd" clip-rule="evenodd" d="M655.411,159.999c-1.217-3.605-0.086-5.372,3.386-6.459
		c11.105-3.479,22.144-7.18,33.151-10.96c2.835-0.974,4.469-0.434,6.088,2.155c6.598,10.541,8.436,22.404,9.216,34.369
		c1.669,25.594,2.802,51.221,4.162,76.834c0.042,0.802,0.153,1.6,0.331,3.393c1.286-1.504,2.197-2.303,2.782-3.294
		c10.333-17.471,20.676-34.936,30.87-52.488c1.481-2.55,2.3-5.511,3.25-8.34c2.913-8.678,1.327-15.736-6.508-21.496
		c-8.069-5.934-9.897-12.356-7.144-20.389c2.627-7.665,9.93-12.725,17.131-11.869c8.003,0.95,15.763,8.52,16.014,17.354
		c0.189,6.68-0.152,14.039-2.754,20.007c-7.026,16.119-14.717,32.033-23.356,47.345c-17.859,31.653-37.763,61.996-61.466,89.688
		c-8.074,9.435-17,17.832-28.15,23.609c-5.377,2.787-11.011,3.938-16.912,2.489c-6.964-1.708-12.601-9.068-13.411-17.008
		c-0.856-8.402,3.176-16.416,9.927-19.726c5.341-2.618,11.442-1.798,16.182,2.636c2.78,2.599,5.148,5.65,7.604,8.582
		c3.003,3.586,6.613,3.905,10.212,1.462c7.002-4.753,12.858-9.897,12.493-19.894c-1.223-33.454-1.753-66.931-2.79-100.392
		c-0.236-7.619-0.837-15.33-2.344-22.78C671.043,163.302,667.158,160.474,655.411,159.999z"/>
	<path class="o" fill-rule="evenodd" clip-rule="evenodd" d="M426.281,190.498c-3.64,34.01-19.899,66.261-57.339,85.094
		c-8.912,4.483-18.524,6.396-28.53,5.876c-19.021-0.985-32.919-13.629-34.97-32.658c-3.206-29.746,7.04-55.341,25.878-77.737
		c11.348-13.49,25.222-23.698,42.746-27.927C404.436,135.816,426.398,153.205,426.281,190.498z M337.849,251.405
		c-0.074,1.331-0.159,2.66-0.22,3.99c-0.427,9.323,3.073,16.017,9.411,18.007c6.414,2.015,12.651-0.599,17.382-9.286
		c6.1-11.202,11.903-22.703,16.375-34.623c7.979-21.265,12.992-43.299,12.596-66.241c-0.115-6.646-3.454-12.328-8.268-13.629
		c-6.003-1.624-11.36,0.275-15.279,4.92c-2.974,3.524-5.662,7.458-7.671,11.601C349.09,193.125,339.95,221.271,337.849,251.405z"/>
	<path class="l" fill-rule="evenodd" clip-rule="evenodd" d="M536.647,87.762c-0.557-3.617,0.738-5.188,4.359-5.823
		c13.263-2.33,26.443-5.129,39.706-7.461c3.337-0.587,6.865-0.088,10.742-0.088c-4.952,17.904-9.842,35.497-14.681,53.103
		c-11.321,41.185-22.622,82.375-33.905,123.571c-0.526,1.92-1.233,3.947-1.066,5.855c0.168,1.932,0.829,4.452,2.195,5.444
		c1.051,0.763,4.201,0.204,5.26-0.889c4.264-4.398,8.111-9.204,12.037-13.923c1.142-1.372,2.034-2.952,3.201-4.676
		c1.711,0.834,3.14,1.53,4.965,2.42c-7.104,11.537-14.411,22.364-25.211,30.307c-5.979,4.396-12.667,6.461-20.152,5.807
		c-12.034-1.053-19.091-10.516-16.116-23.062c3.909-16.486,8.535-32.806,12.995-49.157c9.534-34.958,19.159-69.891,28.748-104.833
		c0.132-0.481,0.317-0.95,0.425-1.437c2.332-10.527-0.351-14.107-11.101-14.846C538.239,88.02,537.436,87.868,536.647,87.762z"/>
	<path class="i_1" fill-rule="evenodd" clip-rule="evenodd" d="M1336.059,141.5c-3.801,13.351-7.391,25.947-10.973,38.547
		c-6.636,23.343-13.312,46.676-19.849,70.046c-0.995,3.559-3.058,8.171,1.241,10.408c4.422,2.302,6.768-2.36,8.949-5.177
		c3.955-5.109,7.404-10.609,11.356-16.371c1.204,0.75,2.51,1.562,4.155,2.586c-6.776,12.884-13.604,25.403-25.588,33.63
		c-4.716,3.238-10.799,5.514-16.481,6.106c-12.949,1.351-22.443-9.048-19.658-21.77c3.229-14.749,7.776-29.215,11.847-43.776
		c4.16-14.886,8.791-29.65,12.553-44.634c3.086-12.29,0.355-15.384-12.185-15.958c-0.479-0.022-0.95-0.196-1.414-0.298
		c-0.029-3.72,1.464-5.633,5.4-6.247c13.968-2.179,27.871-4.767,41.826-7.033C1329.812,141.142,1332.512,141.5,1336.059,141.5z"/>
	<path class="i_2" fill-rule="evenodd" clip-rule="evenodd" d="M1325.518,74.05c10.998,0.037,19.607,9.435,19.631,21.43
		c0.023,12.041-9.041,21.796-20.093,21.622c-10.718-0.168-19.478-10.043-19.376-21.843
		C1305.782,83.298,1314.469,74.012,1325.518,74.05z"/>
</g>
</svg>
